<svg width="2352" height="1813" viewBox="0 0 2352 1813" fill="none" xmlns="http://www.w3.org/2000/svg">
<g clip-path="url(#clip0_7_17)">
<path d="M29.0815 1783.68L29.1174 1783.82H247.443L247.515 1783.68L247.623 1783.82H465.876L465.984 1783.61L466.056 1783.82H684.382L684.417 1783.61L684.561 1783.82H902.851L902.923 1783.61L903.066 1783.82H1121.28L1121.36 1783.68L1121.5 1783.82H1339.79L1339.86 1783.68L1230.64 1588.84H1230.57L1012.21 1588.91H356.732L356.767 1588.69L465.948 1393.92L465.984 1393.78L575.165 1198.97L575.201 1198.86L684.417 1004.05L684.489 1003.94L793.634 809.132L793.706 809.06L902.851 614.215L902.923 614.071L1012.07 419.298L1012.14 419.155L1121.28 224.345L1121.36 224.238L1012.14 29.3207L902.923 224.238L902.994 224.345H902.851L793.706 419.226L793.778 419.298H793.634L684.417 614.143L684.489 614.215H684.417L575.273 808.988V809.132H575.201L465.984 1003.94L466.056 1004.05H465.948L356.767 1198.93L356.839 1198.97H356.732L247.551 1393.85V1393.92H247.515L138.334 1588.76V1588.91H138.298L29.0815 1783.68Z" fill="white" stroke="white" stroke-width="58.1268" stroke-linecap="round" stroke-linejoin="round"/>
<path d="M1449.08 808.989L1449 809.132H1449.15L1449.08 808.989Z" fill="white" stroke="white" stroke-width="58.1268" stroke-linecap="round" stroke-linejoin="round"/>
<path d="M1449.08 808.988L1339.93 614.215H1339.72L1339.86 614.072L1230.72 419.298H1230.5L1121.36 614.072L1121.43 614.215H1121.28L1012.14 808.988L1012.21 809.132H1012.07L902.922 1003.94V1004.05H902.85L793.705 1198.86L793.777 1198.97L902.922 1393.78L902.994 1393.92H1121.28L1121.36 1393.85L1012.21 1198.97H1012.07L1012.14 1198.93L1121.28 1004.05L1121.36 1003.94L1230.5 809.132L1230.57 808.988L1230.64 809.132L1339.86 1003.94L1339.93 1004.05L1449.08 1198.93L1558.22 1004.05L1558.29 1003.94L1667.44 809.132L1667.58 808.988L1667.65 809.132L1776.8 1003.94L1776.87 1004.05L1886.02 1198.86L1886.09 1198.97L1995.23 1393.78L1995.3 1393.92L2104.45 1588.69L2104.52 1588.84H1449.15L1558.29 1783.68L1558.37 1783.82H1776.66L1776.8 1783.68L1776.87 1783.82H1995.16L1995.23 1783.68L1995.3 1783.82H2213.59L2213.74 1783.61L2322.88 1588.84H2322.95V1588.76L2213.74 1393.92H2213.67V1393.85L2104.52 1198.97H2104.38L2104.45 1198.86L1995.3 1004.05H1995.16L1995.23 1003.94L1886.09 809.132H1885.94L1886.02 809.06L1776.8 614.215V614.072L1667.58 419.298H1667.44L1558.29 614.072L1558.37 614.215H1558.22L1449.08 808.988Z" fill="white" stroke="white" stroke-width="58.1268" stroke-linecap="round" stroke-linejoin="round"/>
</g>
<defs>
<clipPath id="clip0_7_17">
<rect width="2352" height="1812.63" fill="white" transform="translate(0 0.239441)"/>
</clipPath>
</defs>
</svg>
